<svg width="48" height="48" viewBox="0 0 48 48" fill="none" xmlns="http://www.w3.org/2000/svg">
<g id="hotel" clip-path="url(#clip0_12_4971)" filter="url(#filter0_d_12_4971)">
<g id="Group">
<path id="Vector" d="M12.8334 13H4V40H12.8334V13Z" fill="#E8EAEA"/>
<path id="Vector_2" d="M44.0001 13H35.1667V40H44.0001V13Z" fill="#E8EAEA"/>
</g>
<path id="Vector_3" d="M4 13.5H44C44 12.5 43.1666 11.6666 42.1666 11.6666H5.83336C4.83336 11.6666 4 12.5 4 13.5Z" fill="#3699BA"/>
<path id="Vector_4" d="M35.1667 8.49986H12.8333V39.9999H35.1667V8.49986Z" fill="#F2F2F2"/>
<path id="Vector_5" d="M36.4167 6.66665H11.5834C11.0834 6.66665 10.6667 7.0833 10.6667 7.58329C10.6667 8.08329 11.0834 8.50001 11.5834 8.50001H36.4167C36.9167 8.50001 37.3334 8.08337 37.3334 7.58337C37.3334 7.08337 36.9167 6.66665 36.4167 6.66665Z" fill="#3699BA"/>
<g id="Group_2">
<path id="Vector_6" d="M10.3334 15.5H6.5V19.75H10.3334V15.5Z" fill="#48B7D6" fill-opacity="0.84"/>
<path id="Vector_7" d="M10.3334 21.4168H6.5V25.6668H10.3334V21.4168Z" fill="#48B7D6" fill-opacity="0.84"/>
<path id="Vector_8" d="M10.3334 27.3333H6.5V31.5833H10.3334V27.3333Z" fill="#48B7D6" fill-opacity="0.84"/>
<path id="Vector_9" d="M10.3334 33.2499H6.5V37.4999H10.3334V33.2499Z" fill="#48B7D6" fill-opacity="0.84"/>
<path id="Vector_10" d="M41.5 15.5H37.6667V19.75H41.5V15.5Z" fill="#48B7D6" fill-opacity="0.84"/>
<path id="Vector_11" d="M41.5 21.4168H37.6667V25.6668H41.5V21.4168Z" fill="#48B7D6" fill-opacity="0.84"/>
<path id="Vector_12" d="M41.5 27.3333H37.6667V31.5833H41.5V27.3333Z" fill="#48B7D6" fill-opacity="0.84"/>
<path id="Vector_13" d="M41.5 33.2499H37.6667V37.4999H41.5V33.2499Z" fill="#48B7D6" fill-opacity="0.84"/>
</g>
<path id="Vector_14" d="M19.5 22.9167H15.3333V27.1667H19.5V22.9167Z" fill="#3BA0BF"/>
<path id="Vector_15" d="M28.4166 29.5833H19.5V40H28.4166V29.5833Z" fill="white"/>
<path id="Vector_16" d="M44 38.25H4V40H44V38.25Z" fill="#ACB3BA"/>
<g id="Group_3">
<path id="Vector_17" d="M19.5 11.0833H15.3333V15.3333H19.5V11.0833Z" fill="#3BA0BF"/>
<path id="Vector_18" d="M19.5 17.0001H15.3333V21.2501H19.5V17.0001Z" fill="#3BA0BF"/>
<path id="Vector_19" d="M26.0833 11.0833H21.9166V15.3333H26.0833V11.0833Z" fill="#3BA0BF"/>
<path id="Vector_20" d="M26.0833 17.0001H21.9166V21.2501H26.0833V17.0001Z" fill="#3BA0BF"/>
<path id="Vector_21" d="M26.0833 22.9167H21.9166V27.1667H26.0833V22.9167Z" fill="#3BA0BF"/>
<path id="Vector_22" d="M32.6666 11.0833H28.5V15.3333H32.6666V11.0833Z" fill="#3BA0BF"/>
<path id="Vector_23" d="M32.6666 17.0001H28.5V21.2501H32.6666V17.0001Z" fill="#3BA0BF"/>
<path id="Vector_24" d="M32.6666 22.9167H28.5V27.1667H32.6666V22.9167Z" fill="#3BA0BF"/>
</g>
</g>
<defs>
<filter id="filter0_d_12_4971" x="0" y="0" width="48" height="48" filterUnits="userSpaceOnUse" color-interpolation-filters="sRGB">
<feFlood flood-opacity="0" result="BackgroundImageFix"/>
<feColorMatrix in="SourceAlpha" type="matrix" values="0 0 0 0 0 0 0 0 0 0 0 0 0 0 0 0 0 0 127 0" result="hardAlpha"/>
<feOffset dy="4"/>
<feGaussianBlur stdDeviation="2"/>
<feComposite in2="hardAlpha" operator="out"/>
<feColorMatrix type="matrix" values="0 0 0 0 0 0 0 0 0 0 0 0 0 0 0 0 0 0 0.25 0"/>
<feBlend mode="normal" in2="BackgroundImageFix" result="effect1_dropShadow_12_4971"/>
<feBlend mode="normal" in="SourceGraphic" in2="effect1_dropShadow_12_4971" result="shape"/>
</filter>
<clipPath id="clip0_12_4971">
<rect width="40" height="40" fill="white" transform="translate(4)"/>
</clipPath>
</defs>
</svg>
