<svg width="34" height="34" viewBox="0 0 34 34" fill="none" xmlns="http://www.w3.org/2000/svg">
<g id="Group 84">
<g id="Group">
<path id="Vector" d="M6.94137 25.3859L1.98701 21.4891C1.71637 21.2855 1.62776 20.9261 1.7902 20.6909C2.58427 19.5409 4.11396 19.1481 5.61695 19.7083L10.0977 22.2501L6.94137 25.3859Z" fill="#4BABC6"/>
<path id="Vector_2" d="M8.604 27.0485L12.5111 32.0131C12.7147 32.2837 13.0741 32.3723 13.3093 32.2099L13.6047 32.0059C14.5774 31.3343 14.9095 30.0404 14.4357 28.7691L11.7501 23.9024L8.604 27.0485Z" fill="#4BABC6"/>
</g>
<path id="Vector_3" d="M7.23037 20.6234L4.42725 23.4083L6.94131 25.3858L10.0977 22.2498L7.23037 20.6234Z" fill="#3699BA"/>
<g id="Group_2">
<path id="Vector_4" d="M8.28351 10.1235C7.66131 9.50129 7.61209 8.50988 8.16795 7.82779C8.963 6.85214 9.9591 5.76575 10.5566 5.16822C11.3741 4.35077 11.4455 4.44843 12.3189 3.91308C12.4474 3.83424 12.6134 3.85325 12.72 3.95989L14.4472 5.68704C14.5538 5.79368 14.5728 5.95963 14.494 6.08821C13.9586 6.96158 14.0563 7.03293 13.2389 7.85038C12.6413 8.4479 11.5549 9.444 10.5793 10.239C9.89712 10.7948 8.90565 10.7457 8.28351 10.1235Z" fill="#E9E9E9"/>
<path id="Vector_5" d="M23.8762 25.7162C23.254 25.094 23.2048 24.1026 23.7607 23.4205C24.5557 22.4449 25.5518 21.3585 26.1493 20.761C26.9668 19.9435 27.0381 20.0412 27.9116 19.5058C28.0402 19.427 28.2061 19.446 28.3127 19.5526L30.0399 21.2798C30.1465 21.3864 30.1655 21.5524 30.0867 21.681C29.5513 22.5543 29.649 22.6257 28.8316 23.4432C28.234 24.0407 27.1476 25.0368 26.172 25.8319C25.4898 26.3877 24.4984 26.3384 23.8762 25.7162Z" fill="#E9E9E9"/>
</g>
<path id="Vector_6" d="M16.0835 16.013L22.1959 9.90061L3.26086 3.9514C2.87096 3.85185 2.48333 3.94664 2.22538 4.20459L0.625644 5.80432C0.0899021 6.34007 0.31985 7.32216 1.07616 7.72828L16.0835 16.013Z" fill="#4BABC6"/>
<path id="Vector_7" d="M17.9175 8.55647L12.4608 14.0132L16.0835 16.0131L22.1959 9.90068L17.9175 8.55647Z" fill="#3699BA"/>
<path id="Vector_8" d="M17.9868 17.9165L24.0992 11.8041L30.0485 30.7391C30.148 31.129 30.0532 31.5167 29.7953 31.7746L28.1955 33.3743C27.6598 33.9101 26.6777 33.6801 26.2716 32.9238L17.9868 17.9165Z" fill="#4BABC6"/>
<path id="Vector_9" d="M29.5241 9.23456L19.2553 19.5032C17.5323 21.2263 15.7004 22.8335 13.7826 24.3047L8.89692 28.0526C7.76587 28.9203 6.42068 29.0253 5.6977 28.3023C4.97472 27.5793 5.07967 26.2341 5.94738 25.1031L9.6953 20.2174C11.1665 18.2995 12.7736 16.4678 14.4967 14.7447L24.7655 4.47597C26.1693 3.07219 27.7815 1.9026 29.4847 1.0996C30.9514 0.408131 32.5105 -0.0250719 33.2678 0.73222C34.0251 1.48951 33.5919 3.04856 32.9004 4.51529C32.0975 6.21861 30.9279 7.83079 29.5241 9.23456Z" fill="#C1C1C1"/>
<path id="Vector_10" d="M33.2677 0.732292C33.0012 0.465755 32.635 0.347135 32.2088 0.334961C32.2394 1.12363 31.8974 2.12389 31.4445 3.08457C30.6416 4.78776 29.472 6.4 28.0681 7.80377L17.7995 18.0725C16.0764 19.7955 14.2446 21.4027 12.3267 22.8738L7.44108 26.6217C6.72167 27.1736 5.91582 27.4164 5.23834 27.3344C5.28925 27.7103 5.44101 28.0456 5.69765 28.3022C6.42063 29.0252 7.76581 28.9202 8.89687 28.0525L13.7825 24.3046C15.7004 22.8334 17.5322 21.2263 19.2553 19.5032L29.524 9.23457C30.9278 7.83079 32.0974 6.21855 32.9004 4.51536C33.5918 3.04863 34.025 1.48958 33.2677 0.732292Z" fill="#F0F0F0" fill-opacity="0.45"/>
<path id="Vector_11" d="M30.3749 7.26811L30.0243 7.61876C29.6986 7.94441 26.0558 4.30158 26.3814 3.97592L26.7321 3.62527C26.9531 3.40424 27.2775 3.33458 27.5417 3.45145C28.858 4.03374 29.9664 5.1422 30.5488 6.45854C30.6655 6.72267 30.5959 7.04708 30.3749 7.26811Z" fill="#D6D6D6"/>
<path id="Vector_12" d="M6.80711 27.681C6.68218 27.681 6.55718 27.6334 6.46187 27.538C6.27118 27.3473 6.27118 27.0381 6.46187 26.8475L10.7259 22.5834C10.9166 22.3927 11.2258 22.3927 11.4164 22.5834C11.6071 22.7741 11.6071 23.0833 11.4164 23.2739L7.15236 27.538C7.05705 27.6333 6.93211 27.681 6.80711 27.681Z" fill="#939393" fill-opacity="0.92"/>
</g>
</svg>
