<svg xmlns="http://www.w3.org/2000/svg" xmlns:xlink="http://www.w3.org/1999/xlink" x="0px" y="0px" viewBox="0 0 800 586.3" style="enable-background:new 0 0 800 586.3;" xml:space="preserve"> <style type="text/css"> .st0{fill:#EDEDED;} .st1{fill:#222023;} .st2{fill:#A59AA5;} .st3{fill:#C2B8C2;} .st4{fill:#DBD5DB;} .st5{fill:#FDC72F;} .st6{fill:#FFD56C;} .st7{fill:none;stroke:#FFFFFF;stroke-width:2.2052;stroke-miterlimit:10;} .st8{fill:none;stroke:#FFFFFF;stroke-width:13.1376;stroke-linecap:round;stroke-linejoin:round;stroke-miterlimit:10;} .st9{fill:none;stroke:#FFFFFF;stroke-width:9.0321;stroke-linecap:round;stroke-linejoin:round;stroke-miterlimit:10;} .st10{fill:#9FDEFD;} .st11{fill:#FFFFFF;} .st12{fill:#FBA09F;} .st13{fill:#005FEA;} .st14{fill:#1FA5F8;} .st15{fill:#FAFAFA;} .st16{fill:#21529F;} .st17{fill:#E0895A;} .st18{fill:#FAC030;} .st19{fill:none;stroke:#EAAE28;stroke-width:0.75;stroke-miterlimit:10;} .st20{fill:none;stroke:#1C96D3;stroke-width:0.75;stroke-miterlimit:10;} .st21{fill:#201C30;} .st22{fill:#CC6E44;} .st23{fill:#FDBC9B;} .st24{fill:none;stroke:#0759AA;stroke-width:0.75;stroke-miterlimit:10;} .st25{fill:#FFAC9D;} .st26{fill:none;stroke:#ED8E8E;stroke-width:0.75;stroke-miterlimit:10;} .st27{fill:none;stroke:#EFA987;stroke-width:0.4825;stroke-miterlimit:10;} .st28{fill:#090B0C;} .st29{fill:#3D5057;} .st30{fill:#EFA987;} .st31{fill:#171E21;} .st32{fill:#E49D7D;} .st33{fill:#2783F2;} .st34{fill:#E9B022;} .st35{fill:#F7C12E;} </style> <g id="BACKGROUND"> </g> <g id="OBJECTS"> <g> <g> <g> <g> <g> <g> <g> <path class="st0" d="M711.1,307c0-169.6-137.4-307-307-307s-307,137.4-307,307c0,96.7,44.7,183,114.6,239.2h384.7 C666.4,490,711.1,403.7,711.1,307z"></path> </g> </g> <g> <g> <path class="st1" d="M419.7,545.4h-44.5c-7.9,0-14.3-6.4-14.3-14.3v-42.3H434v42.3C434,539,427.6,545.4,419.7,545.4z"></path> <path class="st2" d="M445.3,517.1h-95.1c-5.9,0-10.8-4.8-10.8-10.8v-97h116.7v97C456.1,512.2,451.3,517.1,445.3,517.1z"></path> <path class="st3" d="M456.5,459H338.3c-7.8,0-14.1-6.3-14.1-14.1l0,0c0-7.8,6.3-14.1,14.1-14.1h118.2 c7.8,0,14.1,6.3,14.1,14.1v0C470.5,452.7,464.2,459,456.5,459z"></path> <path class="st4" d="M385.6,459h-24.8c-7.8,0-14.1-6.3-14.1-14.1l0,0c0-7.8,6.3-14.1,14.1-14.1h24.8 c7.8,0,14.1,6.3,14.1,14.1v0C399.7,452.7,393.4,459,385.6,459z"></path> <path class="st3" d="M456.5,501.6H338.3c-7.8,0-14.1-6.3-14.1-14.1l0,0c0-7.8,6.3-14.1,14.1-14.1h118.2 c7.8,0,14.1,6.3,14.1,14.1l0,0C470.5,495.3,464.2,501.6,456.5,501.6z"></path> <path class="st4" d="M374,501.6h-1.4c-7.8,0-14.1-6.3-14.1-14.1l0,0c0-7.8,6.3-14.1,14.1-14.1h1.4c7.8,0,14.1,6.3,14.1,14.1 v0C388,495.3,381.7,501.6,374,501.6z"></path> </g> <g> <path class="st5" d="M563.7,216c0-84.7-74.3-153.3-165.9-153.3S232,131.3,232,216c0,50.7,26.7,95.7,67.8,123.6l0,0 c0,0,19.3,10.6,21.4,39.3v20.6c0,9.7,8.5,17.5,19,17.5h115.7c10.5,0,19-7.8,19-17.5v-20.8c2.2-28.6,21-39,21-39l0,0 C537,311.8,563.7,266.8,563.7,216z"></path> <ellipse transform="matrix(0.7071 -0.7071 0.7071 0.7071 -45.8341 350.1494)" class="st6" cx="399.8" cy="230.4" rx="119.8" ry="119.8"></ellipse> <g> <path class="st7" d="M380.3,417.1V244.2c0-12.8-10.4-23.2-23.2-23.2l0,0c-12.8,0-23.2,10.4-23.2,23.2v12.9 c0,12.8,10.4,23.2,23.2,23.2l40,0.1"></path> <path class="st7" d="M414.4,417.1V244.2c0-12.8,10.4-23.2,23.2-23.2l0,0c12.8,0,23.2,10.4,23.2,23.2v12.9 c0,12.8-10.4,23.2-23.2,23.2l-43,0.1"></path> </g> <g> <path class="st8" d="M299,143.4c10.9-13.4,24.5-24.6,39.9-32.8"></path> <path class="st9" d="M272.5,252.1c-1.8-8.6-2.7-17.5-2.7-26.6"></path> <path class="st9" d="M529.7,225.4c0,12.2-1.7,24-4.8,35.1"></path> </g> </g> </g> </g> <g> <g> <path class="st10" d="M795.7,355.2l-36.2,0.1c-2.4,0-4.4-1.9-4.4-4.3l0,0c0-2.4,1.9-4.4,4.3-4.4l36.2-0.1 c2.4,0,4.4,1.9,4.4,4.3l0,0C800,353.2,798.1,355.2,795.7,355.2z"></path> <path class="st10" d="M147.6,63.8l-74,0.1c-2.4,0-4.4-1.9-4.4-4.3l0,0c0-2.4,1.9-4.4,4.3-4.4l74-0.1c2.4,0,4.4,1.9,4.4,4.3 l0,0C151.9,61.8,150,63.7,147.6,63.8z"></path> <path class="st10" d="M720.6,73.9l-10.4,0c-0.8,0-1.5-0.7-1.5-1.5l0-10c0-0.8,0.7-1.5,1.5-1.5l10.4,0c0.8,0,1.5,0.7,1.5,1.5 l0,10C722.1,73.2,721.4,73.9,720.6,73.9z"></path> <path class="st10" d="M18.6,345.2l-10.4,0c-0.8,0-1.5-0.7-1.5-1.5l0-10c0-0.8,0.7-1.5,1.5-1.5l10.4,0c0.8,0,1.5,0.7,1.5,1.5 l0,10C20.1,344.5,19.4,345.2,18.6,345.2z"></path> <path class="st11" d="M187.8,276.7l-9.2,0c-0.7,0-1.3-0.6-1.3-1.3l0-8.8c0-0.7,0.6-1.3,1.3-1.3l9.2,0c0.7,0,1.3,0.6,1.3,1.3 l0,8.8C189.1,276.1,188.5,276.7,187.8,276.7z"></path> <path class="st11" d="M415.5,34.1h-36c-2.4,0-4.3-1.9-4.3-4.3l0,0c0-2.4,1.9-4.3,4.3-4.3h36c2.4,0,4.3,1.9,4.3,4.3l0,0 C419.8,32.1,417.9,34.1,415.5,34.1z"></path> </g> <g> <g> <g> <g> <path class="st12" d="M762.6,208.9h-34.3c-4.6,0-8.3-3.7-8.3-8.3l0,0c0-4.6,3.7-8.3,8.3-8.3h34.3c4.6,0,8.3,3.7,8.3,8.3 l0,0C770.9,205.2,767.2,208.9,762.6,208.9z"></path> </g> <g> <path class="st11" d="M738.5,200.6c0,1.2-0.9,2.1-2.1,2.1c-1.2,0-2.1-0.9-2.1-2.1c0-1.2,0.9-2.1,2.1-2.1 C737.5,198.5,738.5,199.4,738.5,200.6z"></path> <path class="st11" d="M747.6,200.6c0,1.2-0.9,2.1-2.1,2.1c-1.2,0-2.1-0.9-2.1-2.1c0-1.2,0.9-2.1,2.1-2.1 C746.6,198.5,747.6,199.4,747.6,200.6z"></path> <path class="st11" d="M756.7,200.6c0,1.2-0.9,2.1-2.1,2.1c-1.2,0-2.1-0.9-2.1-2.1s0.9-2.1,2.1-2.1 C755.7,198.4,756.7,199.4,756.7,200.6z"></path> </g> </g> </g> <g> <g> <circle class="st13" cx="120.6" cy="166" r="30.4"></circle> </g> <path class="st11" d="M130.9,158.2c-2.5-2.4-6.5-2.4-8.9,0.1l-1.6,1.6l-1.7-1.6c-2.5-2.4-6.5-2.4-8.9,0.1 c-2.4,2.5-2.4,6.5,0.1,8.9l6.1,6.1c0,0,0,0,0,0c1,1,2.2,1.5,3.5,1.7c1.9,0.3,4-0.3,5.5-1.8l6-6.2 C133.4,164.7,133.4,160.7,130.9,158.2z"></path> </g> <g> <g> <g> <g> <path class="st14" d="M636.3,102.9h-66.7c-2.4,0-4.3-1.9-4.3-4.3V40.1c0-1.9,1.5-3.4,3.4-3.4h67.7c1.9,0,3.4,1.5,3.4,3.4 v59.4C639.7,101.4,638.2,102.9,636.3,102.9z"></path> </g> </g> </g> <g> <g> <g> <path class="st15" d="M596.4,84.1c6.3,0.1,12.7,0.2,18.5-0.2c1.8-0.1,3.4-3,1.2-4c0.9-0.5,1.9-0.9,2.3-2 c0.4-1-0.1-2.3-1.1-2.6c2.2,0.5,3.1-2.9,1.3-4.1c0.9-0.8,1.7-1.8,1.8-3c0.2-1.2-0.3-2.5-1.3-3.1 c-0.7-0.4-1.5-0.4-2.3-0.4c-2.6,0-5.2,0-7.9-0.1c0.7-4.1,0.9-8.6-1.2-12.2c-0.6-1.1-2.3-2.4-3.7-1.6 c-1.3,0.8-0.9,2.7-0.8,4c0.3,5.1-2.6,10.2-7.2,12.6C596.1,67.7,596.4,78.5,596.4,84.1z"></path> </g> </g> <rect x="584.6" y="67.7" class="st15" width="9.5" height="16.4"></rect> </g> </g> </g> </g> </g> <g> <g> <g> <path class="st16" d="M710.5,546.2c-1.2,0-2.4-0.8-2.8-2l-81.2-223l-81.2,223c-0.6,1.5-2.3,2.3-3.8,1.8 c-1.5-0.6-2.3-2.3-1.8-3.8l84-230.7c0.4-1.2,1.5-2,2.8-2c1.3,0,2.4,0.8,2.8,2l84,230.7c0.6,1.5-0.2,3.3-1.8,3.8 C711.2,546.2,710.9,546.2,710.5,546.2z"></path> <path class="st16" d="M636.2,342.1H592c-1.6,0-3-1.3-3-3c0-1.6,1.3-3,3-3h44.2c1.6,0,3,1.3,3,3 C639.2,340.8,637.9,342.1,636.2,342.1z"></path> <path class="st16" d="M647.6,374.7h-42.1c-1.6,0-3-1.3-3-3c0-1.6,1.3-3,3-3h42.1c1.6,0,3,1.3,3,3 C650.6,373.3,649.2,374.7,647.6,374.7z"></path> <path class="st16" d="M600.8,374.7h-40.4c-1.6,0-2.9-1.3-2.9-3c0-1.6,1.3-3,2.9-3h40.4c1.6,0,2.9,1.3,2.9,3 C603.7,373.3,602.4,374.7,600.8,374.7z"></path> <path class="st16" d="M659,407.2h-42.1c-1.6,0-3-1.3-3-3c0-1.6,1.3-3,3-3H659c1.6,0,3,1.3,3,3 C662,405.9,660.6,407.2,659,407.2z"></path> <path class="st16" d="M592,407.2h-42.1c-1.6,0-3-1.3-3-3c0-1.6,1.3-3,3-3H592c1.6,0,3,1.3,3,3 C595,405.9,593.6,407.2,592,407.2z"></path> <path class="st16" d="M670.3,439.7h-42.1c-1.6,0-3-1.3-3-3c0-1.6,1.3-3,3-3h42.1c1.6,0,3,1.3,3,3 C673.3,438.4,672,439.7,670.3,439.7z"></path> <path class="st16" d="M579.6,439.7h-42.1c-1.6,0-3-1.3-3-3c0-1.6,1.3-3,3-3h42.1c1.6,0,3,1.3,3,3 C582.6,438.4,581.2,439.7,579.6,439.7z"></path> <path class="st16" d="M681.7,472.3h-42.1c-1.6,0-3-1.3-3-3c0-1.6,1.3-3,3-3h42.1c1.6,0,3,1.3,3,3 C684.7,470.9,683.4,472.3,681.7,472.3z"></path> <path class="st16" d="M568.2,472.3H526c-1.6,0-3-1.3-3-3c0-1.6,1.3-3,3-3h42.1c1.6,0,3,1.3,3,3 C571.2,470.9,569.8,472.3,568.2,472.3z"></path> <path class="st16" d="M693.1,504.8H651c-1.6,0-3-1.3-3-3s1.3-3,3-3h42.1c1.6,0,3,1.3,3,3S694.8,504.8,693.1,504.8z"></path> <path class="st16" d="M556.5,504.8h-42.1c-1.6,0-3-1.3-3-3s1.3-3,3-3h42.1c1.6,0,3,1.3,3,3S558.1,504.8,556.5,504.8z"></path> <path class="st16" d="M626.3,315.5h-44.2c-1.6,0-3-1.3-3-3c0-1.6,1.3-3,3-3h44.2c1.6,0,3,1.3,3,3 C629.3,314.2,627.9,315.5,626.3,315.5z"></path> </g> <g> <g> <g> <g> <polygon class="st17" points="639.6,455.6 640.9,431.6 653.8,433.3 651.2,458.5 639,456.3 "></polygon> <g> <path d="M653,452.3c0,0-8.6,4.5-13.4-2.2l-23.3,12.5l39.9-0.3L653,452.3z"></path> <rect x="616.3" y="462.6" transform="matrix(1 -6.329295e-03 6.329295e-03 1 -2.9264 4.0364)" class="st2" width="39.9" height="3.6"></rect> </g> </g> <path class="st18" d="M653.4,295.4c0,0-11.5,6.8-12.9,44.8c-1.4,38-3.7,101.8-3.7,101.8h19.4l10-123.8l-2.6-22.8H653.4z"></path> </g> <g> <g> <polygon class="st17" points="673.1,455.6 671.8,431.6 684.7,433.3 684.8,458.5 672.5,456.3 "></polygon> <g> <path d="M686.6,452.3c0,0-8.6,4.5-13.4-2.2l-23.3,12.5l39.9-0.3L686.6,452.3z"></path> <rect x="649.8" y="462.6" transform="matrix(1 -6.329295e-03 6.329295e-03 1 -2.9257 4.2486)" class="st2" width="39.9" height="3.6"></rect> </g> </g> <g> <path class="st18" d="M679.7,300.3c0,0,11.6,13.5,9.9,37.1l-0.6,104.9l-22.1-0.6L660,299L679.7,300.3z"></path> <polyline class="st19" points="662.8,361 661.6,330.6 653.2,319 "></polyline> </g> </g> </g> <g> <g> <g> <g> <path class="st17" d="M581.2,252.7l24.8,23.6c3.2,3.1,8.5,2.2,10.6-1.7l2.4-4.4l-33.6-24.4L581.2,252.7z"></path> <g> <path class="st17" d="M586,249.4c-1.3,4-5.6,6.2-9.6,4.9c-4-1.3-6.2-5.6-4.9-9.6c1.3-4,5.6-6.2,9.6-4.9 C585.1,241.1,587.3,245.4,586,249.4z"></path> <path class="st17" d="M580.8,239.7l-7-4.3c-0.6-0.4-1.4-0.3-1.8,0.3l0,0c-0.4,0.5-0.3,1.1,0.1,1.5l6.6,5.9L580.8,239.7z "></path> </g> </g> <path class="st17" d="M609.8,265.5l32-11.8l-1.5,15.1c0,0-17.2,7.5-28.1,9.2C601.4,279.7,609.8,265.5,609.8,265.5z"></path> </g> <path class="st14" d="M650.2,253.2c0,0-2.9-4.6-10.5-1.4c-7.5,3.2-21.4,7.8-21.4,7.8l12,20.6l22.8-8.5L650.2,253.2z"></path> </g> <g> <path class="st14" d="M680.6,248.6l-16.9-1.6l-21.1,3.9c0,0-1.4,30.5,2.1,46.1c0.6,2.7,3.1,4.6,5.9,4.4l30.2,0.4 c0,0,4.2-3,4.3-9.3l-2.2-41.5C682.9,249.8,681.9,248.7,680.6,248.6z"></path> <line class="st20" x1="641.6" y1="275" x2="640.5" y2="263.4"></line> </g> <g> <path class="st13" d="M732.2,321.1l-98.4-10.2c-2.2-0.2-3.8-2.2-3.6-4.4l1.2-11.9c0.2-2.2,2.2-3.8,4.4-3.6l98.4,10.2 c2.2,0.2,3.8,2.2,3.6,4.4l-1.2,11.9C736.4,319.7,734.4,321.3,732.2,321.1z"></path> <g> <g> <path class="st17" d="M704.9,300.9c-0.1-0.6,3.9-7.3,3.9-7.3l-11.1-22.8c-1.5-4.6-11.1-20.4-15.1-17.6 c-2.9,2-1,19.8,0.5,22.9l11.7,22.4L704.9,300.9z"></path> <g> <path class="st14" d="M679,248.4c0,0,9.7,0.7,13.5,6.6c4.8,7.5,13,19.6,13,19.6l-24.8,9.3L679,248.4z"></path> <line class="st20" x1="684" y1="282.7" x2="674.8" y2="266.7"></line> </g> </g> <g> <g> <path class="st17" d="M697.9,289.3l-27.1,19.6l4.3,6.3l29.4-12.7c4.6-2,5.9-7.8,2.6-11.6l0,0 C704.8,288.2,700.9,287.6,697.9,289.3z"></path> </g> <g> <path class="st17" d="M675.9,314.2c0,0-3.7,8.8-10.6,7.9c-8-1-8.7-7.4-5.1-8.7l5.4,0.4c0,0,0.1-3.5,3.5-5 c0.8-0.3,1.7-0.6,2.9-0.6L675.9,314.2z"></path> <path class="st17" d="M670.3,308.5l-7.5,1.4c-0.5,0.1-0.8,0.5-0.8,1l0,0c0,0.6,0.4,1,1,1.1l7.2,0.6L670.3,308.5z"></path> </g> </g> </g> </g> </g> <g> <path class="st21" d="M639.4,225c2.3-1.9,5-6.3,5-6.3l2.3-5.8l7.2,2l-3.5,7.1l-2,1.4l14.5,16.8c0,0-10.5,10.1-20.6,3.7 C633.8,238.6,635.2,228.6,639.4,225z"></path> <path class="st21" d="M679,216.8c0,0,0.8,5.3,5.3,8.2c4.4,2.9,5.7,13.6-2.9,19c-10.1,6.4-20.6-3.7-20.6-3.7L679,216.8z"></path> <path class="st21" d="M650.5,207.3c0,0,20.3-8.8,27.2,4.7c4.1,7.9-0.8,21.8-10.8,25.8c-9.5,3.8-6.8-27.2-6.8-27.2 L650.5,207.3z"></path> <path class="st22" d="M653,226.3c0.2,2.6-1.7,4.8-4.2,5c-2.6,0.2-4.8-1.7-5-4.2c-0.2-2.6,1.7-4.8,4.2-5 C650.6,221.9,652.8,223.8,653,226.3z"></path> <path class="st17" d="M654.5,239.3l0.8,10.1c0.3,3.5,2.6,5.3,6.1,5l0,0c3-0.3,5.7-2,5.8-5l-2-15.8L654.5,239.3z"></path> <polygon class="st22" points="655,246.6 666.7,236 654.4,238.3 "></polygon> <path class="st17" d="M657.6,240.9L657.6,240.9c-6,0.1-11-4.5-11.2-9.4l-0.5-11.5c-0.3-6.1,4.3-11.4,10.4-11.9l0,0 c6.2-0.5,12.8,4,13.4,10.3l0.3,9.3C670.1,234.8,664.7,240.3,657.6,240.9z"></path> <path class="st21" d="M668.1,226.6c0,0-0.5-4.1-3.9-6.2c-3.5-2-13-5-12-12.4c0,0,14.8-4.3,20.2,5.3 C677.7,223,668.1,226.6,668.1,226.6z"></path> <g> <path class="st17" d="M675.6,226.7c0.2,2.6-1.7,4.8-4.2,5c-2.6,0.2-4.8-1.7-5-4.2c-0.2-2.6,1.7-4.8,4.2-5 C673.1,222.3,675.4,224.2,675.6,226.7z"></path> </g> <path class="st21" d="M656,208c0,0-1.1,6.1-10.5,10.1c0,0-2.3-4.4,3.9-10.2c0.6-0.5,1.3-0.8,2.1-0.8l7.2,0L656,208z"></path> <path class="st17" d="M672,247.7l-9.4-1l-12.5,2.7c0,0,0,9,10.1,8.3C670.4,257.2,672,247.7,672,247.7z"></path> </g> </g> <path class="st14" d="M665.7,546.2c-1.2,0-2.4-0.8-2.8-2l-81.2-223l-81.2,223c-0.6,1.5-2.3,2.3-3.8,1.8 c-1.5-0.6-2.3-2.3-1.8-3.8l84-230.7c0.4-1.2,1.5-2,2.8-2s2.4,0.8,2.8,2l84,230.7c0.6,1.5-0.2,3.3-1.8,3.8 C666.4,546.2,666,546.2,665.7,546.2z"></path> </g> <g> <g> <g> <polygon class="st23" points="124.1,505.7 122.4,530.3 111.1,529.8 111.5,504.9 "></polygon> <g> <g> <path d="M123.3,527.5l20.7,9.4c1.4,0.7,2.1,2.2,1.7,3.7l0,0h-36.4l1.4-13.2L123.3,527.5z"></path> <rect x="108.6" y="540.6" transform="matrix(-1 -1.224647e-16 1.224647e-16 -1 254.6922 1085.1891)" class="st3" width="37.5" height="3.9"></rect> </g> </g> </g> <g> <polygon class="st23" points="87.2,505.7 85.5,530.3 74.2,529.8 74.6,504.9 "></polygon> <g> <g> <path d="M86.4,527.5L107,537c1.4,0.7,2.1,2.2,1.7,3.7l0,0H72.3l1.4-13.2L86.4,527.5z"></path> <rect x="71.7" y="540.6" transform="matrix(-1 -1.224647e-16 1.224647e-16 -1 180.8953 1085.1891)" class="st3" width="37.5" height="3.9"></rect> </g> </g> </g> <g> <polygon class="st13" points="117.6,390.2 74.1,393.5 68.3,515.6 92.1,515.6 99.8,423.5 110.2,462.9 106.7,517.1 126.9,517.2 133.9,457.2 "></polygon> <line class="st24" x1="109.6" y1="418.2" x2="99.8" y2="423.5"></line> </g> </g> <g> <g> <polygon class="st25" points="117,352.9 116.7,364.9 123.5,365 123,352.1 "></polygon> <path class="st12" d="M117.4,332.6c0,0,10.9,6.5,9.3,27l-10.1-2.3L117.4,332.6z"></path> </g> <g> <path class="st12" d="M95.5,325.8c-10.9,0-23.3,3.8-23.3,3.8l0.5,69.6l46.2-3.6l-0.5-60.9c0-1.1-0.6-2.1-1.5-2.6l-12.8-5.5 C104,326.7,97.7,325.8,95.5,325.8z"></path> <line class="st26" x1="118.5" y1="357.7" x2="118.5" y2="344.3"></line> </g> <g> <g> <path class="st23" d="M77.6,353.1l-3,34.4c0,0-3.3,6.9-9.1-0.3c-5.8-7.2-0.8-35.3-0.8-35.3L77.6,353.1z"></path> <g> <path class="st12" d="M79.2,360.3c0,0,3.8-29.3-4.3-30.7c-8.3-1.5-16.2,18.1-16.2,34.4L79.2,360.3z"></path> <polyline class="st26" points="76.9,360.5 80.1,359.6 80.6,345.8 "></polyline> </g> </g> <g> <g> <path class="st23" d="M97.4,355.3c0,0,1.7-6.1,7.8-6.7c6.1-0.6,7.9,4.2,6.7,7.3c-1.1,3.1-5.1,8.3-11.1,5.6 C94.8,358.9,97.4,355.3,97.4,355.3z"></path> <path class="st23" d="M107.1,348.6c0,0,6,0.7,10.4,2.8c0.5,0.2,0.7,0.7,0.6,1.2l0,0c-0.1,0.7-0.7,1.1-1.4,1l-8.2-1.5 L107.1,348.6z"></path> </g> <g> <polygon class="st23" points="73.4,389.3 100.7,361.6 97.4,355.3 70.7,372.2 "></polygon> <line class="st27" x1="76.3" y1="368.7" x2="70.7" y2="372.2"></line> </g> </g> </g> <g> <g> <path class="st28" d="M134.8,362.2l-11.5,34.2c-0.4,1.2-1.6,1.9-2.8,1.7l-28-3.7c-1.6-0.2-2.7-1.9-2.1-3.4l11.9-34.1 c0.4-1.2,1.6-1.9,2.8-1.7l27.7,3.6C134.3,359,135.3,360.7,134.8,362.2z"></path> <polygon class="st28" points="134.3,359.7 135.7,361.6 92.1,395.3 90.6,393.2 "></polygon> <path class="st29" d="M136.1,363.9l-11.5,34.2c-0.4,1.2-1.6,1.9-2.8,1.7l-28-3.7c-1.6-0.2-2.7-1.9-2.1-3.4l11.9-34.1 c0.4-1.2,1.6-1.9,2.8-1.7l27.7,3.6C135.6,360.7,136.6,362.4,136.1,363.9z"></path> </g> <path class="st23" d="M134.8,373.9l-2.6,7.1c-0.3,0.9-1.2,1.4-2.1,1.3l0,0c-2.7-0.4-4.4-3-3.6-5.6l0.7-2.4 c0.6-1.9,2.4-3.2,4.4-3.1l1.5,0.1C134.3,371.3,135.2,372.6,134.8,373.9z"></path> </g> </g> <g> <path class="st23" d="M105.6,315.5l-1.4,11.2c-0.5,3.9-3.1,5.8-6.8,5.2l0,0c-3.2-0.4-6.5-2.4-6-5.9l1.7-17.6L105.6,315.5z"></path> <path class="st30" d="M104.3,325.8c0,0-12.6-4.6-11.6-15.9c0.3-3.4,12.9,5.1,12.9,5.1L104.3,325.8z"></path> <path class="st23" d="M107,328l-5.5-2.5l-9.6,0.3l-5.6,0.8c0,0-2.1,8.4,12.2,8.9C109.9,335.8,107,328,107,328z"></path> <g> <path class="st31" d="M113.1,300.9c0,0,11-8.2,6-15.7c-5-7.6-14.1-1-14.1-1L113.1,300.9z"></path> <path class="st31" d="M104.3,282.2c0,0-30.9-4.4-17.3,19.6l3.5-9.7L104.3,282.2z"></path> <path class="st31" d="M113.7,288.7c0,0,5.2,4.3-1.3,13.8l-1.7-12.1L113.7,288.7z"></path> <path class="st32" d="M107.9,305.3c-0.3,2.6,1.5,5,4,5.3c2.5,0.3,4.8-1.6,5.1-4.2c0.3-2.6-1.5-5-4-5.3 C110.5,300.8,108.2,302.7,107.9,305.3z"></path> <path class="st23" d="M100.8,319.4L100.8,319.4c6.5,0.3,12.1-4.7,12.5-10.1l0.9-11.4c0.6-6.8-4.2-12.9-10.8-13.7l0,0 c-6.7-0.8-14,4-14.9,11l-0.6,8.9C87.4,312.2,93.1,318.5,100.8,319.4z"></path> <path class="st31" d="M114.3,295.2c0,0,0.4-3-5.5-3.7c-5.9-0.7-13.4-0.2-17.6,5l-0.1,8.2l-5.2-5.2l2.8-12.3l15.7-5.1 l9.4,6.5L114.3,295.2z"></path> <g> <path class="st23" d="M82,303.6c-0.3,2.6,1.5,4.9,4,5.2c2.5,0.3,4.8-1.5,5.1-4.1c0.3-2.6-1.5-4.9-4-5.2 C84.6,299.2,82.3,301.1,82,303.6z"></path> </g> <path class="st31" d="M109,284.5c0,0,1.4-3.6-3.5-5.6c-4.2-1.7-8.6-1-18.1,5.4L109,284.5z"></path> <path class="st31" d="M112.2,314.3c0-0.7-0.5-1.4-1.1-1.7c-0.9-0.4-2.5-1-4.8-1.3c-2.8-0.4-6.9,0.5-9.2,1 c-0.9,0.3-2-0.2-2.4-1.1c-1.5-2.9-4.2-9.8-2.1-17.8l-3.3,2.4l0.4,5c0,0,2.6,5.4-1.4,7.9c0,0-0.2,11.3,10.2,13.3 c3,0.6,6.5,0.1,9.2-1.2C110.2,319.7,112.2,317.2,112.2,314.3z"></path> <path class="st31" d="M91.5,298.9c0,0,6.9-1.6,4.2-8.3c-2.6-6.7-5.9,1.8-5.9,1.8L91.5,298.9z"></path> </g> </g> </g> <g> <g> <g> <g> <polygon class="st23" points="181.8,549.9 192.8,532.4 205.8,539 192.5,559.3 182.1,554.6 "></polygon> <g> <g> <path d="M181.6,548.5c0,0,6.3,10.2,14.8,7.4l9.7,24.2L172,555.5L181.6,548.5z"></path> <rect x="186.1" y="548.3" transform="matrix(0.5859 -0.8104 0.8104 0.5859 -383.5221 388.0686)" class="st3" width="3.7" height="42.1"></rect> </g> </g> </g> <g> <polygon class="st13" points="217.7,445 204.4,501.3 182.1,538.8 203.3,551.1 230.1,503.3 239,467.4 "></polygon> <polygon class="st33" points="203.4,552.3 180.5,538.7 187.1,527.8 209.9,542.2 "></polygon> </g> </g> <g> <g> <polygon class="st23" points="284.1,567.1 275.8,548.2 288.5,541.2 297.9,563.6 288.2,569.6 "></polygon> <g> <g> <path d="M282.9,566.5c0,0,12,0.5,14.4-8.1l25.5,5.5l-39.4,14.1L282.9,566.5z"></path> <rect x="282.6" y="571.1" transform="matrix(0.9396 -0.3423 0.3423 0.9396 -177.7561 138.526)" class="st3" width="42.1" height="3.7"></rect> </g> </g> </g> <g> <g> <path class="st13" d="M243.4,429.5v12.8l33.6,51.9l21,56.9l-20.6,8.2l-21.2-52.1l-40.1-51.7c0,0-13.5-17.5,2.7-32.8 L243.4,429.5z"></path> <line class="st24" x1="235.7" y1="480.8" x2="215.4" y2="454.6"></line> </g> <polygon class="st33" points="299.6,550.6 275.7,560.4 271.1,548.5 295.7,539.2 "></polygon> </g> </g> </g> <g> <g> <g> <path class="st30" d="M245.8,383.4l15.6,11.4l18.8-24.1l5.8,3.2c0,0-7,23.8-16.3,35.8c-1.6,2.1-4.5,2.8-6.9,1.8 c-5-2-14.4-6.6-26.1-16.5L245.8,383.4z"></path> <path class="st34" d="M250.5,386.9l-11.8,19.7l-11.6-8.9c-4.7-3.6-5.8-10.3-2.6-15.3l0,0c3.7-5.6,11.3-7.3,16.6-3.1 L250.5,386.9z"></path> </g> </g> <path class="st35" d="M241.1,379.3l-18.4-6.4c0,0-15.8,14.1-3.8,49.8l24.6,6.8c0,0,1.9-9.9,2.3-21.4 C255.1,395,241.1,379.3,241.1,379.3z"></path> <g> <g> <path class="st14" d="M338.4,400.4h-58.4c-2.7,0-4.9-2.2-4.9-4.9v-57.6c0-2.7,2.2-4.9,4.9-4.9h58.4c2.7,0,4.9,2.2,4.9,4.9 v57.6C343.3,398.2,341.1,400.4,338.4,400.4z"></path> <path class="st11" d="M322.2,364.1l-2.2-0.4c-0.3-0.9-0.6-1.8-1.1-2.7l1.3-1.8c0.5-0.7,0.4-1.6-0.2-2.1l-1.3-1.3 c-0.6-0.6-1.5-0.6-2.1-0.2l-1.8,1.3c-0.8-0.5-1.7-0.9-2.7-1.1l-0.4-2.2c-0.1-0.8-0.8-1.4-1.6-1.4h-1.9 c-0.8,0-1.5,0.6-1.6,1.4l-0.4,2.2c-0.9,0.3-1.8,0.6-2.7,1.1l-1.8-1.2c-0.7-0.5-1.6-0.4-2.1,0.2l-1.3,1.3 c-0.6,0.6-0.6,1.5-0.2,2.1l1.3,1.8c-0.5,0.8-0.9,1.7-1.1,2.7l-2.2,0.4c-0.8,0.1-1.4,0.8-1.4,1.6v1.8c0,0.8,0.6,1.5,1.4,1.6 l2.2,0.4c0.3,0.9,0.6,1.8,1.1,2.7l-1.3,1.8c-0.5,0.7-0.4,1.6,0.2,2.1l1.3,1.3c0.6,0.6,1.5,0.6,2.1,0.2l1.8-1.3 c0.8,0.5,1.7,0.9,2.7,1.1l0.4,2.2c0.1,0.8,0.8,1.4,1.6,1.4h1.9c0.8,0,1.5-0.6,1.6-1.4l0.4-2.2c0.9-0.3,1.8-0.6,2.7-1.1 l1.8,1.2c0.7,0.5,1.6,0.4,2.1-0.2l1.3-1.3c0.6-0.6,0.6-1.5,0.2-2.1l-1.3-1.8c0.5-0.8,0.9-1.7,1.1-2.7l2.2-0.4 c0.8-0.1,1.4-0.8,1.4-1.6v-1.8C323.5,364.9,322.9,364.2,322.2,364.1z M309.1,371.6c-2.7,0-4.9-2.2-4.9-4.9 c0-2.7,2.2-4.9,4.9-4.9c2.7,0,4.9,2.2,4.9,4.9c0,0,0,0,0,0C314.1,369.4,311.9,371.6,309.1,371.6z"></path> </g> <g> <g> <g> <path class="st23" d="M241.6,390.2l13.6,16.4l23-20.2l4.8,4.5c0,0-12.7,21.3-24.7,30.6c-2.1,1.6-5,1.6-7.2,0.1 c-4.4-3.2-12.3-9.9-21.2-22.4L241.6,390.2z"></path> <path class="st23" d="M294.9,379.5c-0.3-0.3-0.9-0.4-1.3-0.1l-3.4,2.1c-0.1-0.1-0.2-0.1-0.3-0.2l3.6-3.6 c0.4-0.4,0.4-1.1,0-1.5c-0.4-0.5-1.2-0.5-1.7,0l-4,3.5c-0.1-0.1-0.2-0.2-0.4-0.3l3.7-5.1c0.3-0.4,0.2-1-0.2-1.3 c-0.4-0.4-1.1-0.3-1.5,0.1l-4.3,4.6l0,0c-0.1-0.1-0.3-0.2-0.4-0.3l2.4-4.3c0.3-0.5,0.1-1-0.3-1.3 c-0.5-0.3-1.2-0.2-1.5,0.3L283,376c0,0.1-0.9,2-1.9,4.1l-0.7-3.8c-0.1-0.4-0.4-0.7-0.7-0.7c-0.6-0.1-1.2,0.3-1.2,0.9 c-0.2,2.4,0,9.4-0.3,9.9l4.8,4.5l9.4-7.8l2.5-2.4C295.2,380.4,295.3,379.9,294.9,379.5z"></path> </g> <path class="st18" d="M245.5,394.4L229,410.8l-9-11.5c-3.7-4.7-3.1-11.4,1.3-15.4l0,0c5-4.5,12.8-3.8,16.8,1.6 L245.5,394.4z"></path> <polyline class="st19" points="234.7,405.4 229,410.8 220,399.2 "></polyline> <line class="st19" x1="245.5" y1="394.4" x2="236.9" y2="384.1"></line> </g> </g> </g> </g> <g> <path class="st31" d="M238.8,355.8l9.1-2.3c6.2,3.6,7.2,13.8,7.2,13.8h-15.9L238.8,355.8z"></path> <polygon class="st23" points="241.9,362.6 237,377.2 223.6,371.8 231,349.8 "></polygon> <path class="st30" d="M239,371.2c0.1-0.3-2.5-9.1-2.5-9.1l5.5,2.5L239,371.2z"></path> <g> <path class="st23" d="M245.9,332.3c0,0,6.9,1.2,7.3,9.9c0,0,0.2,6.3,0.4,15.4c0.1,4.8-4.2,8.7-8.9,7.7 c-2.9-0.6-6.1-1.8-8.9-4l-4-3.8c-9.4-10.5-0.8-27.2,13.2-25.4C245.2,332.1,245.5,332.2,245.9,332.3z"></path> <path class="st23" d="M252.4,351.2l3.2,3c0.4,0.4,0.2,1.1-0.4,1.2l-3.2,0.3L252.4,351.2z"></path> </g> <path class="st31" d="M236.6,347.9c0,0-4.1-21.2,14.2-12.6c0,0-7.1-11.6-23.2-4.6c-3.4,1.5-6.9,5.6-7.5,9.2 c-1,5.9,2.2,10.9,7.5,20.1l6.1-7.1C234.1,351.4,236.6,347.9,236.6,347.9z"></path> <path class="st31" d="M230.8,341.7l3.7,8.7c23.4-7.3,12.8-18.3,12.8-18.3S228.2,326.5,230.8,341.7z"></path> <polygon class="st31" points="242.5,345.9 239.2,350.8 235.1,345 "></polygon> <path class="st31" d="M243.8,333.3c0,0,8,1.3,9.2,6.9c0,0,6.3-6.5-6.7-9.2C238.5,329.3,243.8,333.3,243.8,333.3z"></path> <path class="st31" d="M235.3,352.9c0,0-1.5,10.6-0.5,14.4l-19.6-1.1c0,0,3.6-6.9,3.9-12.2c0.2-4.2-1.9-13.8,4.6-20.3 l3.2,12.6L235.3,352.9z"></path> <g> <path class="st23" d="M230.1,350.8c-0.2,2.6,1.7,4.8,4.2,5c2.6,0.2,4.8-1.7,5-4.2c0.2-2.6-1.7-4.8-4.2-5 C232.6,346.3,230.3,348.2,230.1,350.8z"></path> </g> <path class="st23" d="M222.6,372.9c0,0,7,6.7,18.4,6.4l-8-9.5l-7.8-1.7L222.6,372.9z"></path> </g> </g> </g> </g> </g> </g> </g> <g id="DESIGNED_BY_FREEPIK"> </g> </svg>