<svg xmlns="http://www.w3.org/2000/svg" width="780" height="440" viewBox="0 0 780 440">
  <rect width="780" height="440" fill="#2079c3"/>
  <polygon points="454.99 119.87 433.82 79.82 290.19 79.82 290.19 360.58 495.03 360.58 495.03 140.47 454.99 119.87" fill="#fff" stroke="#002138" stroke-linecap="round" stroke-linejoin="round" stroke-width="1.15"/>
  <polygon points="494.88 140.74 434.09 140.74 434.09 79.96 494.88 140.74" fill="#fff" stroke="#002138" stroke-linecap="round" stroke-linejoin="round" stroke-width="1.15"/>
  <g>
    <g>
      <line x1="575.01" y1="311.44" x2="575.01" y2="297.9" fill="none" stroke="#002138" stroke-linecap="round" stroke-linejoin="round" stroke-width="1.15"/>
      <line x1="568.24" y1="304.67" x2="581.78" y2="304.67" fill="none" stroke="#002138" stroke-linecap="round" stroke-linejoin="round" stroke-width="1.15"/>
    </g>
    <circle cx="608.64" cy="304.98" r="5.12" fill="none" stroke="#002138" stroke-linecap="round" stroke-linejoin="round" stroke-width="1.15"/>
    <polyline points="599.73 279.59 592.16 272.02 584.59 279.59" fill="none" stroke="#002138" stroke-linecap="round" stroke-linejoin="round" stroke-width="1.15"/>
  </g>
  <g>
    <g>
      <line x1="223.39" y1="155.84" x2="223.39" y2="142.61" fill="none" stroke="#002138" stroke-linecap="round" stroke-linejoin="round" stroke-width="1.15"/>
      <line x1="216.78" y1="149.23" x2="230" y2="149.23" fill="none" stroke="#002138" stroke-linecap="round" stroke-linejoin="round" stroke-width="1.15"/>
    </g>
    <circle cx="192.97" cy="166.71" r="5" fill="none" stroke="#002138" stroke-linecap="round" stroke-linejoin="round" stroke-width="1.15"/>
    <polyline points="229.72 185.08 222.32 177.69 214.93 185.08" fill="none" stroke="#002138" stroke-linecap="round" stroke-linejoin="round" stroke-width="1.15"/>
  </g>
  <circle cx="554.8" cy="211.15" r="37.75" fill="#fff" stroke="#002138" stroke-linecap="round" stroke-linejoin="round" stroke-width="1.15"/>
  <g>
    <rect x="316.78" y="275.67" width="29.32" height="55.98" stroke-width="1.15" stroke="#002138" stroke-linecap="round" stroke-linejoin="round" fill="#08c4b2"/>
    <rect x="355.46" y="239.84" width="29.32" height="91.81" stroke-width="1.15" stroke="#002138" stroke-linecap="round" stroke-linejoin="round" fill="#ffbc00"/>
    <rect x="394.15" y="204.97" width="29.32" height="126.68" stroke-width="1.15" stroke="#002138" stroke-linecap="round" stroke-linejoin="round" fill="#ff95c1"/>
    <rect x="432.84" y="168.1" width="29.32" height="163.55" stroke-width="1.15" stroke="#002138" stroke-linecap="round" stroke-linejoin="round" fill="#c63434"/>
  </g>
  <circle cx="313.95" cy="165.76" r="57.73" fill="#ff95c1" stroke="#002138" stroke-linecap="round" stroke-linejoin="round" stroke-width="1.15"/>
  <path d="M495.58,250.44a48,48,0,0,1,35.76,80.11l4,23.25-21-11.06a48,48,0,1,1-18.71-92.3Z" fill="#08c4b2" stroke="#002138" stroke-linecap="round" stroke-linejoin="round" stroke-width="1.15"/>
  <g>
    <circle cx="475.02" cy="299.91" r="6.94" fill="#fff" stroke="#002138" stroke-linecap="round" stroke-linejoin="round" stroke-width="1.15"/>
    <circle cx="495.58" cy="299.91" r="6.94" fill="#fff" stroke="#002138" stroke-linecap="round" stroke-linejoin="round" stroke-width="1.15"/>
    <circle cx="516.14" cy="299.91" r="6.94" fill="#fff" stroke="#002138" stroke-linecap="round" stroke-linejoin="round" stroke-width="1.15"/>
  </g>
  <g>
    <circle cx="233.33" cy="252.46" r="36.95" fill="#fff" stroke="#002138" stroke-linecap="round" stroke-linejoin="round" stroke-width="1.15"/>
    <path d="M252.48,254.12l-27.31,17.46a2.17,2.17,0,0,1-1.2.41,2,2,0,0,1-2-2h0V234.94a2,2,0,0,1,2-2h0a2.09,2.09,0,0,1,1.2.41l27.31,17.46a2,2,0,0,1,.55,2.77A2,2,0,0,1,252.48,254.12Z" fill="#c63434" stroke="#002138" stroke-linecap="round" stroke-linejoin="round" stroke-width="1.15"/>
  </g>
  <polygon points="571.83 207.82 540.28 190.39 545.27 226.09 554.54 219.67 563.68 232.95 571.66 227.47 562.52 214.19 571.83 207.82" fill="#ffbc00" stroke="#002138" stroke-linecap="round" stroke-linejoin="round" stroke-width="1.15"/>
  <g>
    <path d="M350.71,183.9l-32.9-10.69a2.51,2.51,0,0,1-1.73-2.38v-6.07a2.49,2.49,0,0,1,1.73-2.37l32.9-10.7a2.5,2.5,0,0,1,3.27,2.38v27.45A2.5,2.5,0,0,1,350.71,183.9Z" fill="#fff" stroke="#002138" stroke-linecap="round" stroke-linejoin="round" stroke-width="1.15"/>
    <rect x="276.69" y="143.44" width="59.51" height="47.09" rx="2.5" stroke-width="1.15" stroke="#002138" stroke-linecap="round" stroke-linejoin="round" fill="#fff"/>
    <circle cx="290.04" cy="157.11" r="5.07" fill="#ff95c1" stroke="#002138" stroke-linecap="round" stroke-linejoin="round" stroke-width="1.15"/>
  </g>
</svg>
